<?xml version="1.0" encoding="UTF-8" standalone="no"?>
<svg
   width="50"
   height="50"
   viewBox="0 0 50 50"
   fill="none"
   version="1.1"
   id="svg6"
   sodipodi:docname="jackal.svg"
   inkscape:version="1.2.1 (9c6d41e, 2022-07-14)"
   xmlns:inkscape="http://www.inkscape.org/namespaces/inkscape"
   xmlns:sodipodi="http://sodipodi.sourceforge.net/DTD/sodipodi-0.dtd"
   xmlns="http://www.w3.org/2000/svg"
   xmlns:svg="http://www.w3.org/2000/svg">
  <defs
     id="defs10" />
  <sodipodi:namedview
     id="namedview8"
     pagecolor="#ffffff"
     bordercolor="#000000"
     borderopacity="0.25"
     inkscape:showpageshadow="2"
     inkscape:pageopacity="0.0"
     inkscape:pagecheckerboard="0"
     inkscape:deskcolor="#d1d1d1"
     showgrid="false"
     inkscape:zoom="13.922337"
     inkscape:cx="59.293205"
     inkscape:cy="33.579132"
     inkscape:window-width="3440"
     inkscape:window-height="1387"
     inkscape:window-x="1512"
     inkscape:window-y="25"
     inkscape:window-maximized="1"
     inkscape:current-layer="svg6" />
  <rect
     style="fill:#041432;fill-opacity:1;stroke:none;stroke-width:1.76003;paint-order:fill markers stroke"
     id="rect1727"
     width="50"
     height="50"
     x="0"
     y="0"
     rx="7"
     ry="7" />
  <path
     fill-rule="evenodd"
     clip-rule="evenodd"
     d="m 9.0636187,4.2896069 c 0,0 9.3705793,5.6211816 12.4293393,12.0211891 1.111824,-0.31558 2.28025,-0.487375 3.471632,-0.487375 1.213676,0 2.403484,0.178259 3.533954,0.505276 3.049808,-6.40745 12.437827,-12.0390901 12.437827,-12.0390901 0.332072,3.6525419 0.02154,12.4196431 -3.682793,19.7529921 -0.214393,-0.379973 -0.420995,-0.735084 -0.627513,-1.07536 1.23174,-2.628815 1.591243,-4.323319 1.621326,-7.555615 -0.710221,2.933953 -1.124835,4.585529 -2.423621,6.310365 -0.798813,-1.164118 -1.72757,-2.30097 -3.162764,-3.900252 l 0.0014,-0.04226 c 0.477017,-2.991053 1.2092,-4.792297 2.736798,-8.0643632 -2.986329,3.6182262 -4.412987,6.5538362 -4.370143,9.1698892 l -0.02436,-0.02445 c 0.01906,1.482018 0.509007,2.861356 1.453676,4.20365 l 0.180166,-1.406935 0.814973,0.514724 c -0.101268,-0.317404 -0.202625,-0.581852 -0.297763,-0.830388 -0.102932,-0.268757 -0.198646,-0.518867 -0.279696,-0.797154 0.01065,0.0092 0.02138,0.0184 0.03207,0.0276 -0.0028,-0.0092 -0.0054,-0.01839 -0.0081,-0.0276 1.170996,1.004835 2.224062,2.152708 3.993401,4.186494 l -0.02337,0.04301 -0.02304,-0.02321 c 0.08445,0.471713 0.12837,0.951382 0.12837,1.436273 0,0.782071 -0.114282,1.761879 -0.328343,2.867571 0.335553,0.200635 0.666299,0.475608 0.881355,0.907211 -0.453564,0.0079 -0.766576,0.0469 -1.112404,0.170303 -0.01218,0.05229 -0.02462,0.10484 -0.03721,0.157624 1.228344,1.225527 1.785499,2.094782 2.586963,3.721413 -1.260581,-1.083481 -2.057654,-1.753345 -2.956991,-2.307599 -0.04044,0.143039 -0.08212,0.287072 -0.124973,0.431934 0.690913,1.262238 0.824504,2.192654 0.50826,3.797406 -0.59395,-0.531215 -1.021492,-0.90431 -1.401465,-1.111575 -0.279033,0.755719 -0.583343,1.516244 -0.91036,2.268317 -0.21953,0.219199 -0.395801,0.457045 -0.57,0.692155 -0.466409,0.629503 -0.918399,1.239531 -2.147736,1.419532 0.06605,1.739255 -0.306217,2.501438 -0.7021,3.311936 -0.198399,0.406161 -0.40268,0.824421 -0.560719,1.383813 -0.311769,0.376327 -0.630084,0.726797 -0.954034,1.047101 -2.003454,1.035829 -2.107792,0.984697 -3.978816,0.0682 l -0.234033,-0.114531 c -2.097764,1.025056 -2.248842,1.079835 -4.027959,0.164337 -0.425304,-0.408647 -0.841161,-0.869918 -1.245415,-1.373868 -0.147432,-0.457874 -0.324779,-0.821023 -0.497653,-1.175057 -0.395967,-0.810497 -0.76815,-1.57268 -0.7021,-3.311936 -1.229345,-0.18 -1.681335,-0.790028 -2.147769,-1.419532 -0.116785,-0.157624 -0.234481,-0.316408 -0.365503,-0.470054 -0.359951,-0.814725 -0.693482,-1.641052 -0.997178,-2.461827 -0.382632,0.206105 -0.812619,0.581106 -1.412147,1.117294 -0.317272,-1.609807 -0.181783,-2.541134 0.514922,-3.809588 -0.04219,-0.142459 -0.08328,-0.284088 -0.123232,-0.424807 -0.902727,0.555249 -1.700893,1.225857 -2.965336,2.312736 0.802856,-1.629531 1.360641,-2.499117 2.593717,-3.728124 -0.01186,-0.0494 -0.02356,-0.09862 -0.03509,-0.14768 -0.349342,-0.125967 -0.663837,-0.16558 -1.121322,-0.173536 0.216366,-0.434171 0.549813,-0.70989 0.887488,-0.910774 -0.217957,-1.118371 -0.334311,-2.109118 -0.334311,-2.8984 0,-0.481409 0.04327,-0.957764 0.12649,-1.426161 1.785084,-2.052433 2.842734,-3.206605 4.019415,-4.216412 -0.08099,0.278287 -0.176768,0.528397 -0.279671,0.797071 -0.09518,0.248537 -0.196459,0.512985 -0.297772,0.830471 l 0.815032,-0.514807 0.180166,1.407018 c 2.607951,-3.706153 1.750465,-7.693919 -2.916975,-13.3490647 1.527565,3.2720497 2.259755,5.0733767 2.736747,8.0643457 l 0.0014,0.04227 c -1.435145,1.599282 -2.363969,2.736134 -3.162783,3.900252 -1.298784,-1.724836 -1.713357,-3.376412 -2.423595,-6.310365 0.03011,3.232296 0.389594,4.9268 1.621336,7.555615 -0.206487,0.340193 -0.413039,0.695304 -0.627391,1.075193 C 9.0421027,16.709084 8.7315667,7.9421156 9.0636187,4.2896069 Z M 21.670223,31.608902 20.606466,29.549923 17.620883,29.000807 c 0.130276,2.18014 1.544255,3.019892 4.04934,2.608095 z m 8.064371,-2.058979 -1.063758,2.058979 c 2.505086,0.411797 3.919065,-0.427955 4.049341,-2.608095 z m -6.68089,10.731224 c -0.464087,0.328426 -0.75058,0.779255 -0.75058,1.276742 0,1.004503 1.16768,1.81873 2.608096,1.81873 1.440333,0 2.608014,-0.814227 2.608014,-1.81873 0,-0.523426 -0.31699,-0.99514 -0.824504,-1.326963 -0.514227,0.207432 -1.170913,0.331823 -1.886439,0.331823 -0.65569,0 -1.262072,-0.104507 -1.754587,-0.281602 z"
     fill="#ffffff"
     id="path2"
     style="stroke-width:0.82873" />
</svg>
